<?xml version="1.0" standalone="no"?>
<!DOCTYPE svg PUBLIC "-//W3C//DTD SVG 20010904//EN"
 "http://www.w3.org/TR/2001/REC-SVG-20010904/DTD/svg10.dtd">
<svg version="1.0" xmlns="http://www.w3.org/2000/svg"
 width="147.000000pt" height="147.000000pt" viewBox="0 0 147.000000 147.000000"
 preserveAspectRatio="xMidYMid meet">
<metadata>
Created by potrace 1.14, written by Peter Selinger 2001-2017
</metadata>
<g transform="translate(0.000000,147.000000) scale(0.100000,-0.100000)"
fill="#000000" stroke="none">
<path d="M465 1345 c-150 -35 -279 -140 -359 -295 -92 -178 -121 -378 -81
-565 42 -198 134 -297 321 -345 94 -24 234 -26 349 -4 44 8 93 17 109 20 47 9
195 63 276 102 154 73 319 212 364 307 65 135 -6 309 -205 508 -210 208 -544
326 -774 272z"/>
</g>
</svg>
